<svg id="Capa_1" data-name="Capa 1" xmlns="http://www.w3.org/2000/svg" viewBox="0 0 363 330.65"><defs><style>.cls-1{fill:#fff;}</style></defs><title>add-q_white</title><path class="cls-1" d="M277.73,94.12c0,11-8,17.69-13.85,22.6-2.22,1.86-6.34,5.25-6.33,6.51a8.86,8.86,0,0,1-8.92,8.94h-.08a8.89,8.89,0,0,1-9-8.79c-.07-9.75,7-15.58,12.75-20.38,4.49-3.77,7.43-6.42,7.43-8.84a8.91,8.91,0,1,0-17.81,0,9,9,0,0,1-18,0,26.91,26.91,0,0,1,53.81,0ZM248.8,140.48a8.83,8.83,0,0,0-8.8,9v.07a8.81,8.81,0,0,0,8.8,9,9,9,0,0,0,0-18ZM67.39,203.17a9,9,0,0,0,0,18h.75a9,9,0,1,0,0-18Zm31.28,0a9,9,0,1,0,0,18h.75a9,9,0,0,0,0-18ZM363,59.42V160.73a43.26,43.26,0,0,1-43.22,43.44H203.07c-2.29,0-4.17,0-5.74,0s-3.5,0-4.22,0c-.75.5-2.6,2.19-4.38,3.83-.7.65-1.5,1.36-2.36,2.15l-33,30.1A9.2,9.2,0,0,1,138,233.59V138.17H43.72A25.8,25.8,0,0,0,18,163.76v101.3c0,14.06,11.66,25.11,25.72,25.11H174.09a9.07,9.07,0,0,1,6,2.55l26.9,24.8V232a9,9,0,0,1,18,0V337.92a8.88,8.88,0,0,1-5.3,8.19,8.73,8.73,0,0,1-3.57.72,9.12,9.12,0,0,1-6.07-2.45l-39.45-36.21H43.72C19.73,308.17,0,289,0,265.06V163.76a43.81,43.81,0,0,1,43.72-43.59H138V59.42c0-24,19.88-43.25,43.87-43.25H319.78A43.1,43.1,0,0,1,363,59.42Zm-18,0a25.08,25.08,0,0,0-25.22-25.25H181.87C167.81,34.17,156,45.36,156,59.42V213.19l18.1-16.35c.83-.77,1.77-1.47,2.46-2.1,8.26-7.61,10.37-8.83,21.15-8.61,1.47,0,3.22.05,5.36.05H319.78A25.25,25.25,0,0,0,345,160.73V59.42Z" transform="translate(0 -16.17)"/></svg>