<svg id="Layer_1" data-name="Layer 1" xmlns="http://www.w3.org/2000/svg" viewBox="0 0 459 512"><defs><style>.cls-1{fill:#fff;}</style></defs><title>view_white</title><path class="cls-1" d="M215,492a20,20,0,0,1-20,20H107a80.09,80.09,0,0,1-80-80V80A80.09,80.09,0,0,1,107,0H352.89a80.09,80.09,0,0,1,80,80V271a20,20,0,0,1-40,0V80a40,40,0,0,0-40-40H107A40.05,40.05,0,0,0,67,80V432a40.05,40.05,0,0,0,40,40h88A20,20,0,0,1,215,492ZM332.89,120h-206a20,20,0,1,0,0,40h206a20,20,0,0,0,0-40Zm20,100a20,20,0,0,0-20-20h-206a20,20,0,1,0,0,40h206A20,20,0,0,0,352.89,220Zm-226,60a20,20,0,1,0,0,40H232a20,20,0,0,0,0-40ZM482.36,426.5c-.7,1-3.11,4.41-4.61,6.3-6.7,8.42-22.37,28.15-44.19,45.56C405.59,500.68,376.8,512,348,512s-57.59-11.32-85.56-33.64C240.63,461,225,441.22,218.25,432.8c-1.5-1.89-3.91-5.3-4.61-6.3a20,20,0,0,1,0-23c.7-1,3.11-4.41,4.61-6.3,6.7-8.42,22.38-28.15,44.19-45.56C290.41,329.32,319.2,318,348,318s57.59,11.32,85.56,33.64c21.82,17.41,37.49,37.14,44.19,45.56,1.5,1.89,3.91,5.3,4.61,6.3A20,20,0,0,1,482.36,426.5ZM440.64,415c-31.8-37.83-62.93-57-92.64-57s-60.84,19.16-92.64,57c31.8,37.83,62.93,57,92.64,57S408.84,452.84,440.64,415ZM349,377a38,38,0,1,0,38,38A38,38,0,0,0,349,377Z" transform="translate(-27)"/></svg>